<svg class="favicon" width="132" height="132" viewBox="0 0 132 132" fill="none" xmlns="http://www.w3.org/2000/svg">
 <style>
    circle {
      stroke: #242B2D;
    }
    path {
      stroke: #242B2D;
    }
    @media (prefers-color-scheme: dark) {
      circle {
        stroke: white;
      }
      path {
        fill: white;
      }
    }
  </style>
  <circle cx="66" cy="66" r="62.5" />
  <path d="M37.406 48.43c-7.178 0-11.883 3.945-11.883 9.696 0 7.082 5.323 8.65 11.74 10.267 5.181 1.283 7.653 2.044 7.653 5.466 0 3.184-2.472 5.133-6.702 5.133-4.706 0-7.368-2.329-7.368-7.177H25c0 7.748 4.99 11.883 13.166 11.883 7.605 0 12.644-4.088 12.644-10.362 0-7.13-5.324-8.793-11.693-10.362-5.419-1.33-7.748-2.281-7.748-5.37 0-2.758 2.282-4.516 5.942-4.516 4.373 0 6.797 2.186 6.797 6.464h5.75c0-7.272-4.23-11.122-12.452-11.122ZM95.087 49.143h-5.609l-2.804 13.023c-1.046 5.038-2.092 10.22-2.947 15.258h-.095a467.846 467.846 0 0 0-3.423-15.305l-3.137-12.976h-7.51l-3.137 12.976a468.106 468.106 0 0 0-3.422 15.305h-.095c-.855-5.039-1.901-10.22-2.994-15.258l-2.757-13.023h-5.609l7.462 33.842h7.653l3.375-14.07c1.188-4.943 2.281-9.886 3.232-14.877h.095c.95 4.991 2.044 9.934 3.232 14.878l3.375 14.069h7.652l7.463-33.842ZM100.234 68.268c-4.398 0-7.343 3.027-7.343 7.547s2.945 7.548 7.343 7.548c4.418 0 7.343-3.027 7.343-7.548 0-4.52-2.925-7.547-7.343-7.547Zm0 1.043c3.804 0 6.341 2.597 6.341 6.504 0 3.907-2.537 6.505-6.341 6.505-3.805 0-6.32-2.598-6.32-6.505 0-3.906 2.515-6.504 6.32-6.504Zm.041 1.657c-2.598 0-4.194 1.84-4.194 4.868 0 2.986 1.576 4.827 4.153 4.827 2.27 0 3.784-1.35 3.968-3.518h-1.759c-.143 1.227-.961 2.045-2.209 2.045-1.473 0-2.393-1.288-2.393-3.354 0-2.107.92-3.396 2.434-3.396 1.247 0 2.025.798 2.127 1.984h1.739c-.103-2.045-1.534-3.456-3.866-3.456Z" />
</svg>