<?xml version="1.0" standalone="no"?>
<!DOCTYPE svg PUBLIC "-//W3C//DTD SVG 20010904//EN"
 "http://www.w3.org/TR/2001/REC-SVG-20010904/DTD/svg10.dtd">
<svg version="1.0" xmlns="http://www.w3.org/2000/svg"
 width="132.000000pt" height="132.000000pt" viewBox="0 0 132.000000 132.000000"
 preserveAspectRatio="xMidYMid meet">
<metadata>
Created by potrace 1.14, written by Peter Selinger 2001-2017
</metadata>
<g transform="translate(0.000000,132.000000) scale(0.100000,-0.100000)"
fill="#000000" stroke="none">
<path d="M543 1280 c-128 -27 -237 -86 -325 -174 -111 -111 -176 -252 -186
-402 -5 -87 4 -174 18 -174 5 0 4 15 -1 32 -20 71 -6 214 31 315 30 82 78 153
150 224 74 72 141 114 240 149 83 30 275 34 355 8 224 -72 376 -229 436 -448
25 -90 20 -250 -11 -340 -63 -187 -208 -331 -397 -397 -67 -23 -94 -27 -193
-27 -97 0 -127 5 -196 27 -179 59 -323 204 -391 391 -12 34 -22 53 -22 44 -2
-30 38 -124 79 -187 89 -137 219 -231 375 -271 245 -61 494 25 659 231 40 48
94 166 110 239 72 315 -106 629 -416 737 -80 28 -238 40 -315 23z"/>
<path d="M310 822 c-36 -18 -60 -63 -53 -101 8 -47 38 -67 129 -91 54 -13 71
-33 56 -65 -22 -49 -106 -45 -125 5 -9 23 -18 30 -39 30 -34 0 -37 -21 -9 -65
44 -73 202 -65 231 11 27 70 -3 112 -103 144 -48 16 -71 28 -77 44 -11 28 22
58 59 52 14 -2 29 -5 33 -5 4 -1 14 -14 22 -29 15 -29 53 -40 62 -18 8 20 -13
64 -39 81 -35 22 -108 26 -147 7z"/>
<path d="M525 788 c8 -46 52 -251 61 -280 4 -13 16 -18 43 -18 l38 0 26 108
c14 59 29 123 33 142 6 32 9 26 29 -65 44 -192 40 -185 85 -185 22 0 40 3 40
8 0 4 16 77 35 162 19 85 35 158 35 163 0 4 -13 7 -28 7 -29 0 -29 -1 -51
-112 -13 -62 -26 -124 -29 -138 -4 -19 -10 -8 -24 50 -10 41 -20 89 -23 105
-3 17 -10 45 -16 63 -9 29 -14 32 -49 32 -36 0 -38 -2 -45 -37 -5 -21 -9 -42
-11 -48 -1 -5 -10 -46 -20 -90 -9 -44 -21 -83 -25 -88 -5 -4 -7 -5 -6 -2 2 3
-8 62 -22 133 -26 125 -27 127 -55 130 -28 4 -28 3 -21 -40z"/>
<path d="M956 619 c-53 -42 -23 -133 45 -131 101 3 96 152 -5 152 -7 0 -25 -9
-40 -21z m92 -14 c20 -19 18 -76 -3 -91 -43 -32 -105 -5 -105 46 0 60 64 87
108 45z"/>
<path d="M972 598 c-26 -26 -11 -76 26 -83 21 -4 50 20 38 32 -4 4 -11 1 -16
-6 -13 -22 -40 -5 -40 25 0 24 3 26 31 20 22 -4 29 -2 27 7 -6 17 -50 21 -66
5z"/>
</g>
</svg>
